Coordinates
version=1
nRows=11
nColumns=42
inDegrees=yes

Units are S.I. units (second, meters, Newtons, ...)
If the header above contains a line with 'inDegrees', this indicates whether rotational values are in degrees (yes) or radians (no).

endheader
time	pelvis_tilt	pelvis_list	pelvis_rotation	pelvis_tx	pelvis_ty	pelvis_tz	hip_flexion_r	hip_adduction_r	hip_rotation_r	knee_angle_r	knee_adduction_r	knee_angle_r_beta	ankle_angle_r	subtalar_angle_r	mtp_angle_r	hip_flexion_l	hip_adduction_l	hip_rotation_l	knee_angle_l	knee_adduction_l	knee_angle_l_beta	ankle_angle_l	subtalar_angle_l	mtp_angle_l	lumbar_extension	lumbar_bending	lumbar_rotation	arm_flex_r	arm_add_r	arm_rot_r	elbow_flex_r	pro_sup_r	wrist_flex_r	wrist_dev_r	arm_flex_l	arm_add_l	arm_rot_l	elbow_flex_l	pro_sup_l	wrist_flex_l	wrist_dev_l
      0.73000000	      1.65892563	     -1.32297472	     -3.14282351	     -1.40337107	      0.95818474	      0.34232988	    -14.51278526	      1.41318715	     -4.54766714	      3.77225687	      3.66781889	      0.06583830	     17.94872894	     16.39580700	     -7.84955181	     20.15573130	     -3.78829489	    -17.35180461	      7.19594013	     -0.32297014	      0.12559285	      4.00657248	     17.47167929	     -7.84955181	    -11.62003977	      2.12284166	      4.58768888	      7.27273545	    -18.07653332	      8.49246231	     39.85840995	     90.00000001	      0.00000000	      0.00000000	    -12.19557754	    -12.07280445	      8.21361753	     30.24835595	     90.00000001	      0.00000000	      0.00000000
      0.74000000	      1.48369873	     -1.54709366	     -3.20449998	     -1.39383338	      0.95648453	      0.34247697	    -14.85944664	      1.68268852	     -4.40788887	      3.97998686	      3.55416945	      0.06946387	     18.18088861	     16.23371951	     -7.84610188	     20.36224682	     -3.92514917	    -17.52346845	      6.06407124	     -0.24368360	      0.10583801	      3.84582812	     18.76090652	     -7.84610188	    -11.50323510	      2.18723570	      4.68729323	      7.52275754	    -18.12556508	      8.88462928	     39.74877733	     90.00000001	      0.00000000	      0.00000000	    -12.28277278	    -12.04753743	      8.04519499	     30.15811649	     90.00000001	      0.00000000	      0.00000000
      0.75000000	      1.55107524	     -1.60544582	     -3.38036272	     -1.38385038	      0.95509864	      0.34243371	    -15.54784982	      1.64244292	     -4.08553502	      4.06718979	      3.58242109	      0.07098585	     18.30226630	     15.90199111	     -7.82680464	     20.53026264	     -3.97887606	    -18.94956412	      5.80789558	     -0.33351016	      0.10136690	      4.10116628	     21.34743863	     -7.82680464	    -11.61542838	      2.05584531	      4.78683551	      7.75352165	    -18.35897331	     10.08124452	     39.75809837	     90.00000001	      0.00000000	      0.00000000	    -12.38425210	    -11.84532810	      7.17474980	     30.00306351	     90.00000001	      0.00000000	      0.00000000
      0.76000000	      1.41231091	     -1.77142307	     -3.49278180	     -1.37397214	      0.95359821	      0.34259797	    -15.92945315	      1.81495946	     -3.95792940	      4.30675002	      3.45469902	      0.07516697	     18.45036612	     15.86512027	     -7.82331490	     20.70502549	     -4.09020644	    -18.96827084	      5.51091997	     -0.30054651	      0.09618370	      4.00703756	     21.75678194	     -7.82331490	    -11.51561532	      2.02921382	      4.92931555	      7.89002877	    -18.29844316	     10.21888958	     39.59012536	     90.00000001	      0.00000000	      0.00000000	    -12.41621964	    -11.85381611	      7.14543005	     29.88984411	     90.00000001	      0.00000000	      0.00000000
      0.77000000	      1.26288580	     -1.86779579	     -3.57934855	     -1.36388167	      0.95216443	      0.34249496	    -16.29975363	      1.83349345	     -3.92220389	      4.57619331	      3.45192256	      0.07986964	     18.42946449	     15.84851443	     -7.82226567	     20.91051513	     -4.09320502	    -18.88683597	      5.62771590	     -0.34493423	      0.09822217	      3.97093463	     21.72790731	     -7.82226567	    -11.38818514	      1.94720888	      5.02019700	      7.89162578	    -18.23344825	     10.25798524	     39.60759290	     90.00000001	      0.00000000	      0.00000000	    -12.46654130	    -11.87157087	      7.13098777	     29.88937436	     90.00000001	      0.00000000	      0.00000000
      0.78000000	      1.13910558	     -1.94825843	     -3.73939063	     -1.35336603	      0.95088286	      0.34253041	    -16.70041409	      1.81759220	     -3.82528899	      4.87849785	      3.41585445	      0.08514585	     18.41638496	     15.84932335	     -7.82113335	     20.97325230	     -4.08072810	    -18.70333751	      5.88016262	     -0.47778774	      0.10262820	      3.86660433	     21.70715998	     -7.82113335	    -11.24345087	      1.82185281	      5.15954341	      7.80568053	    -18.13958396	     10.34220727	     39.55433324	     90.00000001	      0.00000000	      0.00000000	    -12.56178452	    -11.89087110	      7.11089619	     29.83499438	     90.00000001	      0.00000000	      0.00000000
      0.79000000	      1.49331215	     -1.70229428	     -4.21543250	     -1.34289672	      0.95043815	      0.34252423	    -17.56775499	      1.26080531	     -3.41754542	      5.18347086	      3.43996469	      0.09046863	     18.55222326	     16.09392576	     -7.81492388	     20.48788251	     -3.77842997	    -19.14572953	      6.40197807	     -0.70357308	      0.11173560	      3.26228687	     21.39271612	     -7.81492388	    -11.64620380	      1.27715527	      5.52370170	      7.98339397	    -18.18966401	     11.16549941	     39.14270537	     90.00000001	      0.00000000	      0.00000000	    -12.31500490	    -11.81459195	      6.86945544	     29.32352956	     90.00000001	      0.00000000	      0.00000000
      0.80000000	      1.65312995	     -1.47407155	     -4.53946817	     -1.33206918	      0.94989139	      0.34228265	    -18.20144852	      0.72842472	     -3.22555383	      5.57708504	      3.51521414	      0.09733850	     18.45724556	     16.25446282	     -7.80859550	     20.13648616	     -3.41609847	    -19.14483252	      6.92728611	     -0.96051675	      0.12090395	      2.61610092	     20.92231266	     -7.80859550	    -11.78683250	      0.78900586	      5.74401917	      7.87287634	    -18.16639809	     11.55884510	     39.06121142	     90.00000001	      0.00000000	      0.00000000	    -12.22108263	    -11.76035068	      6.65446840	     29.08502262	     90.00000001	      0.00000000	      0.00000000
      0.81000000	      1.81213669	     -1.15477360	     -4.90428303	     -1.32115009	      0.94959491	      0.34200672	    -18.75210158	      0.07008972	     -3.03261851	      6.10401720	      3.59929654	      0.10653520	     18.29112268	     16.43758316	     -7.80128616	     19.67684912	     -2.94210832	    -18.98513020	      7.35763258	     -1.20628538	      0.12841491	      1.71343672	     20.17364593	     -7.80128616	    -11.91616406	      0.19719335	      5.98347110	      7.70863957	    -18.09227586	     11.80290033	     38.91714578	     90.00000001	      0.00000000	      0.00000000	    -12.07849909	    -11.73734125	      6.49539149	     28.79025412	     90.00000001	      0.00000000	      0.00000000
      0.82000000	      1.82372102	     -1.03970381	     -5.09919786	     -1.31031198	      0.94939641	      0.34164126	    -19.09895613	     -0.26950794	     -2.78199396	      6.70895372	      3.59309754	      0.11709333	     17.97341855	     16.47840754	     -7.79849766	     19.43729157	     -2.68293355	    -18.71421462	      7.93467060	     -1.47825595	      0.13848613	      0.96384055	     19.81113594	     -7.79849766	    -11.91836401	     -0.14999297	      6.08844867	      7.48482677	    -17.97262235	     11.87040589	     38.78129590	     90.00000001	      0.00000000	      0.00000000	    -11.94727042	    -11.73986749	      6.48464678	     28.63705730	     90.00000001	      0.00000000	      0.00000000
      0.83000000	      1.96813031	     -0.65087958	     -5.41671087	     -1.29929346	      0.94978109	      0.34119781	    -19.42008959	     -1.03497597	     -2.72989181	      7.58697025	      3.73264875	      0.13241761	     17.40393018	     16.39072345	     -7.79422739	     18.94990273	     -2.17132719	    -18.80500928	      8.35599600	     -1.68787734	      0.14583964	     -0.37932619	     18.92276647	     -7.79422739	    -12.02655403	     -0.81637099	      6.24755508	      7.23621722	    -17.79184277	     11.92019865	     38.52914165	     90.00000001	      0.00000000	      0.00000000	    -11.66929180	    -11.73037962	      6.50805195	     28.17923012	     90.00000001	      0.00000000	      0.00000000
